<?xml version="1.0" standalone="no"?>
<!DOCTYPE svg PUBLIC "-//W3C//DTD SVG 20010904//EN"
 "http://www.w3.org/TR/2001/REC-SVG-20010904/DTD/svg10.dtd">
<svg version="1.0" xmlns="http://www.w3.org/2000/svg"
 width="1000.000000pt" height="1000.000000pt" viewBox="0 0 1000.000000 1000.000000"
 preserveAspectRatio="xMidYMid meet">
<metadata>
Created by potrace 1.15, written by Peter Selinger 2001-2017
</metadata>
<g transform="translate(0.000000,1000.000000) scale(0.100000,-0.100000)"
fill="#000000" stroke="none">
<path d="M770 5000 l0 -4230 4230 0 4230 0 0 4230 0 4230 -4230 0 -4230 0 0
-4230z m6222 2983 c14 -13 18 -31 18 -87 l0 -71 -797 -1192 -797 -1193 -398 0
c-219 0 -398 3 -398 6 0 3 331 500 735 1105 l736 1099 -583 0 c-1006 0 -1207
-27 -1443 -195 -178 -127 -323 -359 -426 -682 l-23 -73 -66 0 c-117 0 -123
-55 71 655 93 341 171 626 174 633 3 9 331 12 1591 12 1463 0 1589 -1 1606
-17z m-1988 -3155 c-4 -7 -311 -466 -681 -1020 l-674 -1008 368 0 c670 1 1063
32 1318 105 120 34 292 119 391 193 217 162 396 423 519 760 l38 102 76 0 c62
0 78 -3 87 -17 10 -17 -28 -163 -352 -1330 l-37 -133 -1646 0 c-1268 0 -1650
3 -1659 12 -7 7 -12 40 -12 80 l0 68 172 258 c94 141 425 636 735 1100 l564
842 400 0 c317 0 399 -3 393 -12z"/>
</g>
</svg>
