<?xml version="1.0" encoding="utf-8"?>
<!-- Generator: Adobe Illustrator 21.1.0, SVG Export Plug-In . SVG Version: 6.00 Build 0)  -->
<svg version="1.1" id="Layer_1" xmlns="http://www.w3.org/2000/svg" xmlns:xlink="http://www.w3.org/1999/xlink" x="0px" y="0px"
	 viewBox="0 0 1080 1080" style="enable-background:new 0 0 1080 1080;" xml:space="preserve">
<style type="text/css">
	.st0{fill:none;stroke:#000000;stroke-width:26;stroke-miterlimit:10;}
</style>
<circle class="st0" cx="438.9" cy="614.1" r="78.9"/>
<circle class="st0" cx="643.3" cy="614.1" r="78.9"/>
<path d="M492.9,514.4l-43.6,103.6c-2.8,6.6-10.7,10.1-17.7,7.8h0c-7-2.3-10.4-9.6-7.6-16.2l43.6-103.6c2.8-6.6,10.7-10.1,17.7-7.8h0
	C492.3,500.6,495.7,507.8,492.9,514.4z"/>
<path d="M618.7,517.1h-162c-7.5,0-13.5-6-13.5-13.5l0,0c0-7.5,6-13.5,13.5-13.5h162c7.5,0,13.5,6,13.5,13.5l0,0
	C632.2,511.1,626.2,517.1,618.7,517.1z"/>
<path d="M632.7,490.1h-46c-4.7,0-8.5-3.8-8.5-8.5l0,0c0-4.7,3.8-8.5,8.5-8.5h46c4.7,0,8.5,3.8,8.5,8.5l0,0
	C641.2,486.3,637.4,490.1,632.7,490.1z"/>
<path d="M468.1,485.2v14.5c0,4.7-3.8,8.5-8.5,8.5h-7.9c-4.7,0-8.5-3.8-8.5-8.5v-14.5c0-4.7,3.8-8.5,8.5-8.5h7.9
	C464.3,476.7,468.1,480.5,468.1,485.2z"/>
<path d="M610.5,499.5l47.6,106.6c3,6.8,0,14.8-6.8,17.8h0c-6.8,3-14.8,0-17.8-6.8l-47.6-106.6c-3-6.8,0-14.8,6.8-17.8v0
	C599.4,489.7,607.4,492.7,610.5,499.5z"/>
</svg>
